<?xml version="1.0" encoding="utf-8"?><svg viewBox="0 0 50 49" xmlns="http://www.w3.org/2000/svg" xmlns:xlink="http://www.w3.org/1999/xlink"><style>:root>svg{display:none}:root>svg:target{display:block}</style><svg fill="none" viewBox="0 0 11 7" id="arrow" xmlns="http://www.w3.org/2000/svg"><path d="m1.896 1 4 4 4-4" stroke="#001420" stroke-width="2" stroke-linecap="round"/></svg><svg fill="none" viewBox="0 0 20 13" id="arrow_colored" xmlns="http://www.w3.org/2000/svg"><path d="m18 2-8 8-8-8" stroke="#009DFF" stroke-width="3" stroke-linecap="round"/></svg><svg fill="none" viewBox="0 0 18 19" id="exit" xmlns="http://www.w3.org/2000/svg"><path fill-rule="evenodd" clip-rule="evenodd" d="M17.485 2.54a1 1 0 0 0-1.414-1.414L9 8.197l-7.07-7.07A1 1 0 0 0 .514 2.54l7.07 7.07-7.07 7.071a1 1 0 1 0 1.414 1.415L9 11.026l7.07 7.07a1 1 0 0 0 1.415-1.414l-7.07-7.07 7.07-7.071Z" fill="#000E16" fill-opacity=".75"/></svg><svg fill="none" viewBox="0 0 49 4" id="minus_lg" xmlns="http://www.w3.org/2000/svg"><path fill-rule="evenodd" clip-rule="evenodd" d="M0 2a2 2 0 0 1 2-2h45a2 2 0 1 1 0 4H2a2 2 0 0 1-2-2Z" fill="#001420"/></svg><svg fill="none" viewBox="0 0 50 49" id="plus_lg" xmlns="http://www.w3.org/2000/svg"><path fill-rule="evenodd" clip-rule="evenodd" d="M27 2a2 2 0 1 0-4 0v20.5H2.5a2 2 0 1 0 0 4H23V47a2 2 0 1 0 4 0V26.5h20.5a2 2 0 1 0 0-4H27V2Z" fill="#001420"/></svg><svg fill="none" viewBox="0 0 24 24" id="social--facebook" xmlns="http://www.w3.org/2000/svg"><path d="M7.064 0C.514 0 0 .513 0 7.064v9.872C0 23.486.513 24 7.064 24h9.872c6.55 0 7.064-.513 7.064-7.064V7.064C24 .513 23.487 0 16.936 0H7.064ZM5.501 2.4h12.998c2.876 0 3.101.225 3.101 3.1v13c0 2.875-.226 3.1-3.1 3.1h-2.53v-7.177h2.842l.448-3.193h-3.29s-.005-1.87 0-2.337c.01-.912.772-1.374 1.428-1.367.655.007 2.012.002 2.012.002V4.584s-1.175-.152-2.407-.165c-1.036-.01-2.18.27-3.102 1.2-.94.946-1.087 2.355-1.105 4.076-.006.497 0 1.534 0 1.534h-2.781v3.193h2.78V21.6H5.502c-2.876 0-3.101-.226-3.101-3.1v-13c0-2.875.225-3.1 3.1-3.1Z" fill="#001420"/></svg><svg fill="none" viewBox="0 0 24 24" id="social--instagram" xmlns="http://www.w3.org/2000/svg"><path d="M11.892 0C.864 0 0 .864 0 11.892v.216C0 23.136.864 24 11.892 24h.216C23.136 24 24 23.136 24 12.108V12C24 .871 23.129 0 12 0h-.108ZM9.6 2.4h4.8c6.677 0 7.2.523 7.2 7.2v4.8c0 6.677-.523 7.2-7.2 7.2H9.6c-6.677 0-7.2-.523-7.2-7.2V9.6c0-6.677.523-7.2 7.2-7.2Zm8.397 2.4a1.2 1.2 0 1 0 .006 2.4 1.2 1.2 0 0 0-.006-2.4ZM11.986 6a6 6 0 1 0 .03 12.001A6 6 0 0 0 11.985 6Zm.006 2.4a3.6 3.6 0 1 1 .015 7.201 3.6 3.6 0 0 1-.015-7.201Z" fill="#001420"/></svg><svg fill="none" viewBox="0 0 24 24" id="social--tiktok" xmlns="http://www.w3.org/2000/svg"><path d="M7.064 0C.514 0 0 .513 0 7.064v9.872C0 23.486.513 24 7.064 24h9.872c6.55 0 7.064-.513 7.064-7.064V7.064C24 .513 23.487 0 16.936 0H7.064ZM5.501 2.4h12.998c2.876 0 3.101.225 3.101 3.1v13c0 2.875-.226 3.1-3.1 3.1h-13c-2.875 0-3.1-.226-3.1-3.1v-13c0-2.875.225-3.1 3.1-3.1Zm6.943 2.216v9.961c0 1.37-1.19 2.077-2.045 2.077-.644 0-2.108-.505-2.108-2.094 0-1.667 1.366-2.092 2.123-2.092.441 0 .614.095.614.095V9.905s-.33-.05-.707-.05c-2.712 0-4.642 2.195-4.642 4.705 0 2.121 1.659 4.69 4.689 4.69 3.227 0 4.705-2.692 4.705-4.674v-4.94s1.438 1.006 3.366 1.006V8.125c-2.212-.158-3.394-1.644-3.476-3.509h-2.519Z" fill="#001420"/></svg></svg>